#!OML:ASF F:\VICON\USERDATA\INSTALL\rory3\rory3.ASF
:FULLY-SPECIFIED
:DEGREES
1184
root -0.0947566 17.3051 -16.2496 -0.0121997 184.889 -4.59478
lowerback 19.2211 -1.48545 -4.68563
upperback 2.05378 -3.08526 4.27377
thorax -8.05271 -1.47561 8.19873
lowerneck -8.90537 -2.93544 -3.39301
upperneck 24.727 0.133166 -7.02119
head 9.27964 -0.293417 -1.71183
rclavicle 1.43125e-014 0
rhumerus -20.6297 -24.8902 -57.6999
rradius 35.2508
rwrist -1.0048
rhand -8.26882 2.74096
rfingers 7.12502
rthumb 17.6502 -26.4779
lclavicle 1.43125e-014 0
lhumerus -41.8449 7.48081 81.1649
lradius 43.809
lwrist 9.64762
lhand -13.1266 51.5799
lfingers 7.12502
lthumb 12.9712 81.1567
rfemur -33.5462 1.10251 17.0569
rtibia 38.4544
rfoot -3.08155 -8.85328
rtoes 17.7626
lfemur 9.99173 -4.39271 -28.511
ltibia 37.6879
lfoot 12.9828 -10.7674
ltoes -19.2422
1185
root -0.0731236 17.3231 -16.475 -0.253147 184.702 -4.07876
lowerback 18.852 -1.33464 -4.42576
upperback 1.90985 -2.78878 4.51365
thorax -8.05915 -1.32913 8.22531
lowerneck -7.62453 -3.13257 -3.72979
upperneck 24.5797 -0.0857928 -6.95401
head 8.98676 -0.349649 -1.63139
rclavicle -4.37326e-014 2.22639e-014
rhumerus -20.4793 -27.5322 -57.0238
rradius 31.7177
rwrist -0.412183
rhand -6.65274 2.51128
rfingers 7.12502
rthumb 19.2048 -26.5605
lclavicle -4.37326e-014 2.22639e-014
lhumerus -42.1194 6.44212 81.8937
lradius 43.9965
lwrist 9.69776
lhand -13.0696 50.9818
lfingers 7.12502
lthumb 13.0261 80.5551
rfemur -32.9712 1.36916 17.8207
rtibia 39.2987
rfoot -3.84435 -8.57301
rtoes 19.238
lfemur 8.59559 -4.2733 -27.7059
ltibia 40.4552
lfoot 16.0185 -10.931
ltoes -18.569
1186
root -0.049128 17.3423 -16.6861 -0.378551 184.652 -3.70091
lowerback 20.2178 -1.32095 -4.25798
upperback 0.909776 -2.67155 4.64866
thorax -9.94145 -1.122 8.41513
lowerneck -7.03539 -3.30495 -3.85419
upperneck 25.5031 -0.0328624 -7.04294
head 9.20571 -0.279824 -1.63347
rclavicle -9.14409e-015 -9.38264e-014
rhumerus -22.0669 -27.3302 -56.5401
rradius 30.3855
rwrist -1.60874
rhand -6.32344 2.29866
rfingers 7.12502
rthumb 19.5214 -26.7413
lclavicle -9.14409e-015 -9.38264e-014
lhumerus -43.5377 5.4415 82.3396
lradius 44.3722
lwrist 9.72901
lhand -13.4331 50.0008
lfingers 7.12502
lthumb 12.6756 79.5962
rfemur -32.2287 1.56763 18.4226
rtibia 39.5737
rfoot -4.57753 -8.65844
rtoes 20.8416
lfemur 6.88605 -4.24788 -27.0637
ltibia 43.3299
lfoot 19.1875 -10.9003
ltoes -15.9986
1187
root -0.04539 17.3578 -16.8805 -0.50141 184.884 -3.6621
lowerback 19.9307 -1.29293 -4.13467
upperback 1.19808 -2.62841 4.67478
thorax -9.47179 -1.15038 8.32141
lowerneck -7.36764 -3.51526 -4.03465
upperneck 25.4724 -0.383825 -6.82847
head 9.25337 -0.464027 -1.57019
rclavicle 9.14409e-015 -2.54444e-014
rhumerus -22.2889 -28.4863 -56.8207
rradius 29.6213
rwrist -1.74615
rhand -6.52016 2.77795
rfingers 7.12502
rthumb 19.3323 -26.2811
lclavicle 9.14409e-015 -2.54444e-014
lhumerus -42.635 4.49034 83.0079
lradius 44.4873
lwrist 9.32377
lhand -12.518 49.6293
lfingers 7.12502
lthumb 13.5578 79.1679
rfemur -31.4297 1.08314 18.6462
rtibia 39.7216
rfoot -5.06833 -8.34105
rtoes 21.3885
lfemur 5.19835 -4.49635 -26.9333
ltibia 46.2155
lfoot 22.9562 -10.2921
ltoes -10.0874
1188
root 0.00949704 17.4037 -17.1168 -1.3216 184.452 -1.62561
lowerback 20.7504 -1.17308 -2.80246
upperback 0.912306 -2.16229 5.30054
thorax -10.3485 -0.947837 8.21343
lowerneck -6.57889 -3.67155 -4.38688
upperneck 25.8919 -0.529259 -6.44889
head 9.25822 -0.474365 -1.38431
rclavicle -5.96354e-015 -5.08889e-014
rhumerus -23.2318 -33.1047 -55.4649
rradius 26.3742
rwrist 3.00726
rhand -6.94358 4.97428
rfingers 7.12502
rthumb 18.9251 -24.125
lclavicle -5.96354e-015 -5.08889e-014
lhumerus -43.4846 3.60445 83.3918
lradius 44.9261
lwrist 8.87941
lhand -11.8588 49.0497
lfingers 7.12502
lthumb 14.1931 78.5448
rfemur -29.7479 2.50969 21.2033
rtibia 39.5505
rfoot -5.67178 -9.18051
rtoes 20.081
lfemur 4.12937 -3.91186 -24.1696
ltibia 49.1281
lfoot 26.5644 -10.3502
ltoes -4.61536
1189
root 0.0246529 17.4187 -17.3376 -1.39644 184.818 -1.52018
lowerback 19.2401 -1.10797 -2.89355
upperback 2.10495 -2.22809 5.50027
thorax -8.16985 -1.14962 8.32746
lowerneck -8.39826 -3.67117 -4.47127
upperneck 25.6099 -0.728625 -6.13513
head 9.50106 -0.659589 -1.31451
rclavicle 1.43125e-014 0
rhumerus -22.1595 -33.9928 -56.8881
rradius 26.7392
rwrist 2.73876
rhand -8.61011 3.78079
rfingers 7.12502
rthumb 17.3217 -25.4673
lclavicle 1.43125e-014 0
lhumerus -40.99 3.29448 83.9966
lradius 44.9378
lwrist 7.87301
lhand -11.0031 48.2831
lfingers 7.12502
lthumb 15.0175 77.7185
rfemur -28.8266 2.32292 21.4444
rtibia 39.5819
rfoot -6.48797 -9.12863
rtoes 18.8977
lfemur 2.39956 -4.17397 -23.9261
ltibia 51.9154
lfoot 29.2933 -9.76659
ltoes -1.51765
